<svg xmlns="http://www.w3.org/2000/svg" width="15" height="18" viewBox="0 0 15 18">
  <defs>
    <style>
      .cls-1 {
        fill: #fe7c1e;
        fill-rule: evenodd;
      }
    </style>
  </defs>
  <path id="Forma_1" data-name="Forma 1" class="cls-1" d="M507.739,2080.74l-1.853-1.12,1.564-.98a0.543,0.543,0,0,0,.187-0.74,0.489,0.489,0,0,0-.7-0.17l-2.086,1.28-3.314-2.03,3.314-2,2.086,1.28a0.4,0.4,0,0,0,.242.08,0.573,0.573,0,0,0,.457-0.25,0.559,0.559,0,0,0-.187-0.75l-1.564-.97,1.853-1.13a0.561,0.561,0,0,0,.186-0.74,0.493,0.493,0,0,0-.708-0.19l-1.862,1.13-0.028-1.96a0.524,0.524,0,0,0-.512-0.54,0.533,0.533,0,0,0-.512.54l0.019,2.58-3.3,2.01V2072l2.077-1.24a0.563,0.563,0,0,0,.205-0.74,0.487,0.487,0,0,0-.7-0.2l-1.583.94v-2.22a0.529,0.529,0,0,0-.521-0.54,0.521,0.521,0,0,0-.512.54v2.24l-1.639-.96a0.491,0.491,0,0,0-.689.2,0.55,0.55,0,0,0,.195.74l2.133,1.26v4.03l-3.371-2.04,0.019-2.53a0.509,0.509,0,0,0-.5-0.54h-0.019a0.536,0.536,0,0,0-.512.54l-0.018,1.9-1.816-1.09a0.481,0.481,0,0,0-.7.19,0.551,0.551,0,0,0,.186.74l1.834,1.12-1.6,1a0.547,0.547,0,0,0-.176.75,0.487,0.487,0,0,0,.437.25,0.5,0.5,0,0,0,.27-0.08l2.095-1.3,3.362,2.02-3.362,2.05-2.095-1.3a0.486,0.486,0,0,0-.707.17,0.56,0.56,0,0,0,.176.74l1.6,1-1.834,1.12a0.556,0.556,0,0,0-.186.75,0.474,0.474,0,0,0,.437.27,0.9,0.9,0,0,0,.261-0.08l1.816-1.09,0.018,1.89a0.529,0.529,0,0,0,.512.54h0.019a0.525,0.525,0,0,0,.5-0.56l-0.019-2.52,3.371-2.02v4l-2.133,1.27a0.544,0.544,0,0,0-.195.74,0.476,0.476,0,0,0,.438.27,0.515,0.515,0,0,0,.251-0.06l1.639-.97v2.27a0.521,0.521,0,0,0,.512.54,0.529,0.529,0,0,0,.521-0.54v-2.24l1.583,0.94a0.51,0.51,0,0,0,.242.06,0.491,0.491,0,0,0,.457-0.27,0.553,0.553,0,0,0-.205-0.74l-2.077-1.23v-4.06l3.3,2-0.019,2.56a0.532,0.532,0,0,0,.512.56,0.518,0.518,0,0,0,.512-0.54l0.028-1.96,1.862,1.14a0.545,0.545,0,0,0,.708-0.19A0.563,0.563,0,0,0,507.739,2080.74Z" transform="translate(-493 -2068)"/>
</svg>
