<svg xmlns="http://www.w3.org/2000/svg" width="15" height="17" viewBox="0 0 15 17">
  <defs>
    <style>
      .cls-1 {
        fill: #fe7c1e;
        fill-rule: evenodd;
      }
    </style>
  </defs>
  <path id="Forma_1" data-name="Forma 1" class="cls-1" d="M595.4,2079.73c-1.314,0-2.383-1.5-2.383-3.34s1.069-3.34,2.383-3.34a0.58,0.58,0,0,0,.5-0.29,0.571,0.571,0,0,0-.012-0.58l-1.565-2.53a0.6,0.6,0,0,0-.425-0.26,0.562,0.562,0,0,0-.477.16,1.405,1.405,0,0,1-1.974,0,1.368,1.368,0,0,1-.409-0.98,0.577,0.577,0,0,0-.578-0.57h-3.948a0.577,0.577,0,0,0-.578.57,1.372,1.372,0,0,1-.409.98,1.405,1.405,0,0,1-1.974,0,0.563,0.563,0,0,0-.477-0.16,0.6,0.6,0,0,0-.425.26l-1.565,2.53a0.569,0.569,0,0,0-.012.58,0.578,0.578,0,0,0,.5.29c1.314,0,2.383,1.5,2.383,3.34s-1.069,3.34-2.383,3.34a0.569,0.569,0,0,0-.525.81l0.987,2.11a0.566,0.566,0,0,0,.61.33c0.041,0,4.122-.58,5.286,1.71a0.572,0.572,0,0,0,.51.31h0.006a0.591,0.591,0,0,0,.511-0.3c1.25-2.34,5.335-1.88,5.376-1.88a0.586,0.586,0,0,0,.587-0.31l0.987-1.96a0.555,0.555,0,0,0-.025-0.55A0.576,0.576,0,0,0,595.4,2079.73Z" transform="translate(-581 -2068)"/>
</svg>
